<?xml version="1.0" encoding="utf-8"?>
<!-- Generator: Adobe Illustrator 14.0.0, SVG Export Plug-In . SVG Version: 6.00 Build 43363)  -->
<!DOCTYPE svg PUBLIC "-//W3C//DTD SVG 1.1//EN" "http://www.w3.org/Graphics/SVG/1.1/DTD/svg11.dtd">
<svg version="1.1" xmlns="http://www.w3.org/2000/svg" xmlns:xlink="http://www.w3.org/1999/xlink" x="0px" y="0px" width="769px"
	 height="170px" viewBox="0 0 769 170" enable-background="new 0 0 769 170" xml:space="preserve">
<g id="Layer_2">
	<g>
		<path d="M214.09,66.44v67.469h-20.598V66.44h-31.77V53.415h84.208V66.44H214.09z"/>
		<path d="M315.042,102.946c0,10.017-3.398,17.873-10.194,23.566c-6.797,5.694-16.199,8.541-28.209,8.541
			c-11.777,0-21.017-2.856-27.72-8.569s-10.055-13.558-10.055-23.537c0-9.94,3.352-17.757,10.055-23.452
			c6.703-5.693,16.083-8.541,28.139-8.541c12.335,0,21.75,2.752,28.244,8.255C311.795,84.713,315.042,92.625,315.042,102.946z
			 M294.514,102.946c0-7.35-1.466-12.683-4.399-15.996s-7.192-4.97-12.778-4.97c-11.917,0-17.875,6.989-17.875,20.966
			c0,6.894,1.454,12.14,4.364,15.739c2.908,3.6,7.11,5.399,12.603,5.399C288.485,124.083,294.514,117.038,294.514,102.946z"/>
		<path d="M398.817,102.946c0,10.017-3.398,17.873-10.194,23.566c-6.797,5.694-16.199,8.541-28.209,8.541
			c-11.777,0-21.017-2.856-27.72-8.569s-10.055-13.558-10.055-23.537c0-9.94,3.352-17.757,10.055-23.452
			c6.703-5.693,16.083-8.541,28.139-8.541c12.335,0,21.75,2.752,28.244,8.255C395.57,84.713,398.817,92.625,398.817,102.946z
			 M378.289,102.946c0-7.35-1.466-12.683-4.399-15.996c-2.932-3.313-7.191-4.97-12.777-4.97c-11.917,0-17.875,6.989-17.875,20.966
			c0,6.894,1.454,12.14,4.364,15.739c2.908,3.6,7.109,5.399,12.603,5.399C372.26,124.083,378.289,117.038,378.289,102.946z"/>
		<path d="M478.473,133.91l-35.331-36.962l-12.149,7.598v29.364h-20.599V53.415h20.599V89.92l44.339-36.505h24.02l-42.035,34.049
			l45.456,46.446H478.473z"/>
		<path d="M529.012,72.096v34.677c0,10.854,4.469,16.282,13.406,16.282c4.748,0,8.576-1.666,11.486-4.999
			c2.908-3.333,4.364-7.607,4.364-12.826V72.096h19.62v47.988c0,5.256,0.186,9.865,0.559,13.825h-18.713
			c-0.559-5.484-0.838-9.578-0.838-12.283h-0.349c-2.608,4.685-5.925,8.094-9.95,10.226c-4.027,2.132-8.811,3.199-14.349,3.199
			c-8.008,0-14.152-2.008-18.434-6.027c-4.284-4.018-6.424-9.912-6.424-17.682V72.096H529.012z"/>
		<path d="M612.786,72.096v34.677c0,10.854,4.469,16.282,13.406,16.282c4.748,0,8.576-1.666,11.486-4.999
			c2.908-3.333,4.363-7.607,4.363-12.826V72.096h19.621v47.988c0,5.256,0.186,9.865,0.559,13.825h-18.713
			c-0.559-5.484-0.838-9.578-0.838-12.283h-0.35c-2.607,4.685-5.924,8.094-9.949,10.226c-4.027,2.132-8.811,3.199-14.35,3.199
			c-8.007,0-14.151-2.008-18.434-6.027c-4.283-4.018-6.424-9.912-6.424-17.682V72.096H612.786z"/>
		<path d="M677.64,133.91V53.415h20.598v67.469h52.787v13.025H677.64z"/>
	</g>
</g>
<g id="Layer_1">
	<g>
		<g>
			<defs>
				<rect id="SVGID_1_" x="19.619" y="19.097" width="124.685" height="135.526"/>
			</defs>
			<clipPath id="SVGID_2_">
				<use xlink:href="#SVGID_1_"  overflow="visible"/>
			</clipPath>
			<path clip-path="url(#SVGID_2_)" d="M20.955,96.236c-5.465-43.535,7.622-57.109,7.622-57.109s-1.416,0.853-0.59,6.821
				c0.042,0.399,0.124,0.786,0.188,1.098c1.02,4.345,3.496,0.912,3.496,0.912c16.6-28.649,38.22-28.86,38.22-28.86l-7.136,5.953
				c-5.991,5.946,1.102,6.542,1.102,6.542l13.682-9.34c0.505,17.065,14.238,1.188,14.238,1.188l0.244,7.11
				c1.44-2.536,9.423-6.201,9.423-6.201c5.336,13.086,15.332,0.635,15.332,0.635c-2.266,1.398-2.606,11.075-2.606,11.075
				c3.389,8.535,12.558-6.228,12.558-6.228c3.389,2.862,2.784,17.661,2.784,17.661c3.103,0.573,5.432-11.076,5.432-11.076
				c2.541,1.718,3.049,20.773,3.049,20.773c2.838,2.012,5.708-7.366,5.708-7.366c1.091,14.23-6.448,51.156-6.448,51.156
				c-4.023,9.09-5.888,50.612-5.888,50.612c-3.41-1.709-4.532-7.405-4.532-7.405c2.944-23.322,3.125-40.088-1.481-52.349
				c-9.996-26.573-46.629-7.579-46.629-7.579C36.139,65.321,32.603,100.01,32.603,100.01c2.114,40.385-5.317,47.182-5.317,47.182
				S22.563,108.989,20.955,96.236L20.955,96.236z M123.869,114.087c0,9.301-2.795,18.789-13.352,18.789
				c-10.609,0-24.999-9.508-24.999-18.789c0-1.709,0.387-3.155,0.911-4.51h-9.42c0.553,1.355,0.931,2.801,0.931,4.51
				c0,9.301-14.399,18.789-24.99,18.789c-10.587,0-13.381-9.508-13.381-18.789c0-8.613,7.434-12.319,16.979-12.807v-0.084h49.851
				v0.084C116.182,101.657,123.869,105.325,123.869,114.087L123.869,114.087z M87.721,107.274c0.899-1.165,1.927-2.182,3.261-2.986
				H72.453c1.313,0.804,2.374,1.822,3.264,2.986H87.721z M87.721,107.274"/>
		</g>
	</g>
</g>
</svg>
